<mxfile host="Electron" modified="2024-04-17T10:02:00.534Z" agent="Mozilla/5.0 (Windows NT 10.0; Win64; x64) AppleWebKit/537.36 (KHTML, like Gecko) draw.io/24.0.4 Chrome/120.0.6099.109 Electron/28.1.0 Safari/537.36" etag="5Ojq9FX0EEHjbKvvT07e" version="24.0.4" type="device">
  <diagram id="23iRSUPoRavnBvh4doch" name="Page-1">
    <mxGraphModel dx="1434" dy="836" grid="1" gridSize="10" guides="1" tooltips="1" connect="1" arrows="1" fold="1" page="1" pageScale="1" pageWidth="827" pageHeight="1169" math="0" shadow="0">
      <root>
        <mxCell id="0" />
        <mxCell id="1" parent="0" />
        <mxCell id="Zb5a05CIZ5jjVDzIs5Nx-1" value="" style="edgeStyle=orthogonalEdgeStyle;rounded=0;orthogonalLoop=1;jettySize=auto;html=1;" parent="1" source="Zb5a05CIZ5jjVDzIs5Nx-2" target="Zb5a05CIZ5jjVDzIs5Nx-5" edge="1">
          <mxGeometry relative="1" as="geometry" />
        </mxCell>
        <mxCell id="Zb5a05CIZ5jjVDzIs5Nx-2" value="&lt;h2&gt;Begin&lt;/h2&gt;" style="rounded=1;whiteSpace=wrap;html=1;fillColor=#f5f5f5;strokeColor=#666666;fontColor=#333333;arcSize=50;" parent="1" vertex="1">
          <mxGeometry x="354" y="120" width="120" height="40" as="geometry" />
        </mxCell>
        <mxCell id="Zb5a05CIZ5jjVDzIs5Nx-3" value="&lt;h1&gt;Choice Sort&lt;/h1&gt;" style="text;html=1;align=center;verticalAlign=middle;resizable=0;points=[];autosize=1;strokeColor=none;fillColor=none;" parent="1" vertex="1">
          <mxGeometry x="334" y="10" width="160" height="70" as="geometry" />
        </mxCell>
        <mxCell id="Zb5a05CIZ5jjVDzIs5Nx-4" value="" style="edgeStyle=orthogonalEdgeStyle;rounded=0;orthogonalLoop=1;jettySize=auto;html=1;" parent="1" source="Zb5a05CIZ5jjVDzIs5Nx-5" edge="1">
          <mxGeometry relative="1" as="geometry">
            <mxPoint x="414" y="280" as="targetPoint" />
          </mxGeometry>
        </mxCell>
        <mxCell id="Zb5a05CIZ5jjVDzIs5Nx-5" value="init index" style="rounded=1;whiteSpace=wrap;html=1;fillColor=#f5f5f5;fontColor=#333333;strokeColor=#666666;" parent="1" vertex="1">
          <mxGeometry x="354" y="200" width="120" height="40" as="geometry" />
        </mxCell>
        <mxCell id="khl3SxPnbAHW0j_xS55t-3" value="" style="edgeStyle=orthogonalEdgeStyle;rounded=0;orthogonalLoop=1;jettySize=auto;html=1;" edge="1" parent="1" source="khl3SxPnbAHW0j_xS55t-1" target="khl3SxPnbAHW0j_xS55t-2">
          <mxGeometry relative="1" as="geometry" />
        </mxCell>
        <mxCell id="khl3SxPnbAHW0j_xS55t-1" value="i == 0; i &amp;lt; array length; ++i" style="shape=hexagon;perimeter=hexagonPerimeter2;whiteSpace=wrap;html=1;fixedSize=1;fillColor=#f5f5f5;fontColor=#333333;strokeColor=#666666;" vertex="1" parent="1">
          <mxGeometry x="320" y="280" width="200" height="40" as="geometry" />
        </mxCell>
        <mxCell id="khl3SxPnbAHW0j_xS55t-7" value="" style="edgeStyle=orthogonalEdgeStyle;rounded=0;orthogonalLoop=1;jettySize=auto;html=1;" edge="1" parent="1" source="khl3SxPnbAHW0j_xS55t-2" target="khl3SxPnbAHW0j_xS55t-6">
          <mxGeometry relative="1" as="geometry" />
        </mxCell>
        <mxCell id="khl3SxPnbAHW0j_xS55t-2" value="" style="shape=trapezoid;perimeter=trapezoidPerimeter;whiteSpace=wrap;html=1;fixedSize=1;fillColor=#f5f5f5;strokeColor=#666666;fontColor=#333333;" vertex="1" parent="1">
          <mxGeometry x="360" y="360" width="120" height="40" as="geometry" />
        </mxCell>
        <mxCell id="khl3SxPnbAHW0j_xS55t-9" value="" style="edgeStyle=orthogonalEdgeStyle;rounded=0;orthogonalLoop=1;jettySize=auto;html=1;" edge="1" parent="1" source="khl3SxPnbAHW0j_xS55t-6" target="khl3SxPnbAHW0j_xS55t-8">
          <mxGeometry relative="1" as="geometry" />
        </mxCell>
        <mxCell id="khl3SxPnbAHW0j_xS55t-6" value="index = 0" style="whiteSpace=wrap;html=1;fillColor=#f5f5f5;strokeColor=#666666;fontColor=#333333;" vertex="1" parent="1">
          <mxGeometry x="360" y="440" width="120" height="40" as="geometry" />
        </mxCell>
        <mxCell id="khl3SxPnbAHW0j_xS55t-11" value="" style="edgeStyle=orthogonalEdgeStyle;rounded=0;orthogonalLoop=1;jettySize=auto;html=1;" edge="1" parent="1" source="khl3SxPnbAHW0j_xS55t-8" target="khl3SxPnbAHW0j_xS55t-10">
          <mxGeometry relative="1" as="geometry" />
        </mxCell>
        <mxCell id="khl3SxPnbAHW0j_xS55t-8" value="j = 1; j &amp;lt; array length - i; ++j" style="shape=hexagon;perimeter=hexagonPerimeter2;whiteSpace=wrap;html=1;fixedSize=1;fillColor=#f5f5f5;strokeColor=#666666;fontColor=#333333;" vertex="1" parent="1">
          <mxGeometry x="320" y="520" width="200" height="40" as="geometry" />
        </mxCell>
        <mxCell id="khl3SxPnbAHW0j_xS55t-13" value="" style="edgeStyle=orthogonalEdgeStyle;rounded=0;orthogonalLoop=1;jettySize=auto;html=1;" edge="1" parent="1" source="khl3SxPnbAHW0j_xS55t-10" target="khl3SxPnbAHW0j_xS55t-12">
          <mxGeometry relative="1" as="geometry" />
        </mxCell>
        <mxCell id="khl3SxPnbAHW0j_xS55t-10" value="" style="shape=trapezoid;perimeter=trapezoidPerimeter;whiteSpace=wrap;html=1;fixedSize=1;fillColor=#f5f5f5;strokeColor=#666666;fontColor=#333333;" vertex="1" parent="1">
          <mxGeometry x="360" y="600" width="120" height="40" as="geometry" />
        </mxCell>
        <mxCell id="khl3SxPnbAHW0j_xS55t-15" value="" style="edgeStyle=orthogonalEdgeStyle;rounded=0;orthogonalLoop=1;jettySize=auto;html=1;" edge="1" parent="1" source="khl3SxPnbAHW0j_xS55t-12" target="khl3SxPnbAHW0j_xS55t-14">
          <mxGeometry relative="1" as="geometry" />
        </mxCell>
        <mxCell id="khl3SxPnbAHW0j_xS55t-12" value="arr[ j ] &amp;gt; arr[index]" style="rhombus;whiteSpace=wrap;html=1;fillColor=#f5f5f5;strokeColor=#666666;fontColor=#333333;" vertex="1" parent="1">
          <mxGeometry x="380" y="680" width="80" height="80" as="geometry" />
        </mxCell>
        <mxCell id="khl3SxPnbAHW0j_xS55t-22" value="" style="edgeStyle=orthogonalEdgeStyle;rounded=0;orthogonalLoop=1;jettySize=auto;html=1;" edge="1" parent="1" source="khl3SxPnbAHW0j_xS55t-14" target="khl3SxPnbAHW0j_xS55t-21">
          <mxGeometry relative="1" as="geometry" />
        </mxCell>
        <mxCell id="khl3SxPnbAHW0j_xS55t-14" value="" style="shape=trapezoid;perimeter=trapezoidPerimeter;whiteSpace=wrap;html=1;fixedSize=1;fillColor=#f5f5f5;strokeColor=#666666;fontColor=#333333;flipV=1;" vertex="1" parent="1">
          <mxGeometry x="360" y="800" width="120" height="40" as="geometry" />
        </mxCell>
        <mxCell id="khl3SxPnbAHW0j_xS55t-16" value="index = j" style="rounded=1;whiteSpace=wrap;html=1;fillColor=#f5f5f5;fontColor=#333333;strokeColor=#666666;" vertex="1" parent="1">
          <mxGeometry x="220" y="705" width="120" height="30" as="geometry" />
        </mxCell>
        <mxCell id="khl3SxPnbAHW0j_xS55t-17" value="" style="endArrow=classic;html=1;rounded=0;exitX=0;exitY=0.5;exitDx=0;exitDy=0;entryX=1;entryY=0.5;entryDx=0;entryDy=0;" edge="1" parent="1" source="khl3SxPnbAHW0j_xS55t-12" target="khl3SxPnbAHW0j_xS55t-16">
          <mxGeometry width="50" height="50" relative="1" as="geometry">
            <mxPoint x="310" y="770" as="sourcePoint" />
            <mxPoint x="360" y="720" as="targetPoint" />
          </mxGeometry>
        </mxCell>
        <mxCell id="khl3SxPnbAHW0j_xS55t-18" value="true" style="text;html=1;align=center;verticalAlign=middle;resizable=0;points=[];autosize=1;strokeColor=none;fillColor=none;" vertex="1" parent="1">
          <mxGeometry x="340" y="688" width="40" height="30" as="geometry" />
        </mxCell>
        <mxCell id="khl3SxPnbAHW0j_xS55t-19" value="false" style="text;html=1;align=center;verticalAlign=middle;resizable=0;points=[];autosize=1;strokeColor=none;fillColor=none;" vertex="1" parent="1">
          <mxGeometry x="414" y="760" width="50" height="30" as="geometry" />
        </mxCell>
        <mxCell id="khl3SxPnbAHW0j_xS55t-20" value="" style="endArrow=classic;html=1;rounded=0;exitX=0.5;exitY=1;exitDx=0;exitDy=0;entryX=0.12;entryY=0.667;entryDx=0;entryDy=0;entryPerimeter=0;" edge="1" parent="1" source="khl3SxPnbAHW0j_xS55t-16" target="khl3SxPnbAHW0j_xS55t-19">
          <mxGeometry width="50" height="50" relative="1" as="geometry">
            <mxPoint x="360" y="800" as="sourcePoint" />
            <mxPoint x="410" y="750" as="targetPoint" />
            <Array as="points">
              <mxPoint x="280" y="780" />
            </Array>
          </mxGeometry>
        </mxCell>
        <mxCell id="khl3SxPnbAHW0j_xS55t-24" value="" style="edgeStyle=orthogonalEdgeStyle;rounded=0;orthogonalLoop=1;jettySize=auto;html=1;" edge="1" parent="1" source="khl3SxPnbAHW0j_xS55t-21" target="khl3SxPnbAHW0j_xS55t-23">
          <mxGeometry relative="1" as="geometry" />
        </mxCell>
        <mxCell id="khl3SxPnbAHW0j_xS55t-21" value="swap arr[ index ] and&amp;nbsp;&lt;div&gt;arr[ array length - i - 1 ]&lt;/div&gt;" style="whiteSpace=wrap;html=1;fillColor=#f5f5f5;strokeColor=#666666;fontColor=#333333;" vertex="1" parent="1">
          <mxGeometry x="325" y="880" width="190" height="40" as="geometry" />
        </mxCell>
        <mxCell id="khl3SxPnbAHW0j_xS55t-26" value="" style="edgeStyle=orthogonalEdgeStyle;rounded=0;orthogonalLoop=1;jettySize=auto;html=1;" edge="1" parent="1" source="khl3SxPnbAHW0j_xS55t-23" target="khl3SxPnbAHW0j_xS55t-25">
          <mxGeometry relative="1" as="geometry" />
        </mxCell>
        <mxCell id="khl3SxPnbAHW0j_xS55t-23" value="" style="shape=trapezoid;perimeter=trapezoidPerimeter;whiteSpace=wrap;html=1;fixedSize=1;fillColor=#f5f5f5;strokeColor=#666666;fontColor=#333333;flipV=1;" vertex="1" parent="1">
          <mxGeometry x="360" y="960" width="120" height="40" as="geometry" />
        </mxCell>
        <mxCell id="khl3SxPnbAHW0j_xS55t-25" value="&lt;h2&gt;End&lt;/h2&gt;" style="rounded=1;whiteSpace=wrap;html=1;fillColor=#f5f5f5;strokeColor=#666666;fontColor=#333333;arcSize=50;" vertex="1" parent="1">
          <mxGeometry x="360" y="1040" width="120" height="40" as="geometry" />
        </mxCell>
      </root>
    </mxGraphModel>
  </diagram>
</mxfile>
